<?xml version="1.0" encoding="UTF-8"?>
<svg xmlns="http://www.w3.org/2000/svg" xmlns:xlink="http://www.w3.org/1999/xlink" viewBox="0 0 50 50" width="50px" height="50px">
<g id="surface86811944">
<path style=" stroke:none;fill-rule:nonzero;fill:rgb(20.392157%,59.607846%,85.882354%);fill-opacity:1;" d="M 6 5 C 5.449219 5 5 5.449219 5 6 L 5 44 C 5 44.550781 5.449219 45 6 45 L 31 45 L 31 33 L 18 33 C 17.449219 33 17 32.550781 17 32 L 17 18 C 17 17.449219 17.449219 17 18 17 L 45 17 L 45 6 C 45 5.449219 44.550781 5 44 5 Z M 19 19 L 19 31 L 32 31 C 32.550781 31 33 31.449219 33 32 L 33 45 L 44 45 C 44.550781 45 45 44.550781 45 44 L 45 19 Z M 19 19 "/>
</g>
</svg>
